#!OML:ASF F:\VICON\USERDATA\INSTALL\rory3\rory3.ASF
:FULLY-SPECIFIED
:DEGREES
55
root 0.536101120847837 17.844713223947792 19.981238406262086 -2.152185868237242 -0.18073971400378852 2.1987450562024273
lfemur 7.377669712505758 -2.020512932405768 -26.977179300228993
ltibia 20.987580994036392
lfoot -8.62765787178062 -0.5822115822164684
ltoes -1.990294148964987
rfemur -26.320166361853584 3.571361028092011 17.726442339883334
rtibia 33.09598745460811
rfoot -5.575299588681601 -8.779175410968067
rtoes 3.7884228548233594
lowerback 10.373262594630049 -0.3108465855498251 -2.226461892091793
upperback 0.5051573677311025 -0.6805200702898033 0.8560057456667748
thorax -4.824975768918651 -0.11038532214171742 2.291535741024899
lowerneck -16.354355241823114 -2.915512711786543 -2.0613865165303586
upperneck 21.378105750084885 -3.741159523397302 0.5340520528373356
head 9.37331690204292 -1.800136861437083 0.2031033607712563
lclavicle -4.536376235162821e-16 -7.766933323344537e-16
lhumerus -24.373682481109107 -0.6264065262585676 79.38590727450747
lradius 28.86152690401775
lwrist 7.455362650352061
lhand -27.656741916504387 21.942225859968243
lfingers 7.12502
lthumb -0.884962122571567 52.48899253616978
rclavicle -4.535503318515325e-16 -7.766258646789304e-16
rhumerus -31.85313405429368 -20.041588335363972 -77.90523273163917
rradius 28.17227910189891
rwrist 4.286082805644955
rhand -18.013637615597705 22.99551951774133
rfingers 7.12502
rthumb 8.081324996834358 -7.17312132761716
56
root 0.4740212103071761 17.80990490490639 20.742954357298316 -1.6007962506784148 0.4432873424386137 2.3823877722538818
lfemur 10.602794758606459 -2.498466858604105 -27.218029777485114
ltibia 19.473099271599438
lfoot -7.989426162001952 -1.0920054524641958
ltoes -1.7150759057926568
rfemur -25.790383837552213 4.9550306578643175 17.063758907274817
rtibia 31.163246548355467
rfoot -6.426059834065113 -8.98271236371572
rtoes 5.28380222348318
lowerback 10.143609955529485 -0.41561799267813954 -2.4262965769060205
upperback 0.48857116948055557 -0.9738823925132796 0.8855012887809142
thorax -4.738288672204955 -0.19977301879834453 2.4855095540840026
lowerneck -16.32556850025441 -2.9430332727458963 -2.0342173948787274
upperneck 21.27835183148372 -3.7760337888357447 0.6827408829484026
head 9.382170610502946 -1.7994932936248307 0.24726803169095185
lclavicle -4.536376239409228e-16 -7.766933326626581e-16
lhumerus -23.037136011677234 -1.4482141316396309 79.29927289075138
lradius 28.542854692708207
lwrist 7.803916311998398
lhand -27.564908198602293 22.24477630783725
lfingers 7.12502
lthumb -0.7095631551412045 52.9467849174071
rclavicle -4.535503319783502e-16 -7.766258647769476e-16
rhumerus -32.771773867225086 -21.360399159415895 -76.98523245609846
rradius 27.17433876122166
rwrist 4.627113103274289
rhand -18.03780779626836 22.954868299288723
rfingers 7.12502
rthumb 8.072113754483206 -7.166683384117289
57
root 0.4040887085225737 17.76973049799153 21.656101870712636 -1.292767438357858 0.8440495397666439 2.392701135621495
lfemur 12.291143404268668 -3.6314222668160134 -27.396210267748568
ltibia 19.720338239519283
lfoot -6.912792960155612 -1.8398085791970535
ltoes -2.1645146430643445
rfemur -25.099617553615523 4.500939909029083 18.1418947508829
rtibia 31.049757724113228
rfoot -6.853154596583553 -8.446886711973274
rtoes 5.560921694917719
lowerback 9.919366095396335 -0.47515821571358835 -2.3982097412467436
upperback 0.4752431422607993 -1.1581300993296684 0.9435926503282295
thorax -4.677609724750975 -0.26492816112278794 2.574031742990158
lowerneck -16.309177252773836 -2.972699526654452 -2.030075722043048
upperneck 21.170276619076603 -3.804789777096575 0.7767008804574745
head 9.369511437240348 -1.7999354596144637 0.26326981102455044
lclavicle -4.536376238147641e-16 -7.766933325651502e-16
lhumerus -22.16458475605972 -1.7952449206883099 79.25789394473966
lradius 28.014270298901963
lwrist 8.082338066035181
lhand -27.629905760678486 22.01907490453668
lfingers 7.12502
lthumb -0.830823090535305 52.58567741213996
rclavicle -4.535503319365494e-16 -7.766258647446398e-16
rhumerus -33.791881280913486 -23.023759456385 -75.83949059284136
rradius 26.179071821642005
rwrist 4.958585841391893
rhand -18.065499732127837 22.882021955701365
rfingers 7.12502
rthumb 8.055180054502753 -7.195742444517861
58
root 0.3249861913888812 17.73762063361414 22.587518037456526 -1.2672727241872859 0.9509275636242998 2.0603241905122465
lfemur 13.785316358735786 -4.985233480755436 -27.040549924571604
ltibia 21.365063214893958
lfoot -5.655492974863014 -2.583852863540727
ltoes -1.9522345301253412
rfemur -25.399612291206914 3.12622764131465 19.928446343481575
rtibia 32.16136666707931
rfoot -6.305812024634825 -7.132516735230064
rtoes 5.195140621302601
lowerback 9.753334660105143 -0.4603834446699309 -2.0044312772226105
upperback 0.45834214970839915 -1.2167977332551443 1.045979059771471
thorax -4.658378155657583 -0.3251524365083679 2.5190190228042098
lowerneck -16.31962679239734 -2.9970544505046703 -2.0372542307136436
upperneck 21.075961633848824 -3.822087781169144 0.8219674866370876
head 9.348632526571173 -1.7915602581081296 0.2704076518601384
lclavicle -4.536376238981725e-16 -7.7669333262961645e-16
lhumerus -21.70566397617346 -1.545375804169078 79.35230208557888
lradius 27.388485530124555
lwrist 8.007012310859372
lhand -27.54231116708465 22.318603002758948
lfingers 7.12502
lthumb -0.6715000682125967 53.066989957198146
rclavicle -4.535503319718029e-16 -7.766258647718873e-16
rhumerus -34.89914204681871 -24.95350455749714 -74.4283571578962
rradius 25.242915848720507
rwrist 5.211928657279359
rhand -18.05689162906518 22.866528369028376
rfingers 7.12502
rthumb 8.020794659573413 -7.249732567228138
59
root 0.23467729445244048 17.72630326706387 23.15780098367977 -1.4950543587083813 0.7981385400526508 1.2688299166844512
lfemur 14.728227779161264 -7.025459865784784 -26.436960685782704
ltibia 24.058079742305168
lfoot -5.272749525512928 -3.8042222391457763
ltoes -2.3921185993455367
rfemur -24.703595106151546 2.9339908620330837 21.81212423157203
rtibia 34.059467754434884
rfoot -5.86259858907867 -5.973948167412424
rtoes 5.255078392246433
lowerback 9.598733936844802 -0.4102468033996293 -1.3693460739569463
upperback 0.43039430972569875 -1.2473683131033753 1.168740010056178
thorax -4.648166207410196 -0.32065184022697346 2.4752976511811324
lowerneck -16.336108315221317 -3.0085124646445207 -2.0476549272878772
upperneck 21.009706848100645 -3.8381663042252163 0.8278241567105018
head 9.32816283899056 -1.7785542508843373 0.27171245673234645
lclavicle -4.536376239732473e-16 -7.766933326876417e-16
lhumerus -21.891284565300104 -0.8790602919538903 79.55929172480691
lradius 26.709867490098738
lwrist 7.78806109128497
lhand -27.72480608743128 21.84183611232719
lfingers 7.12502
lthumb -0.847883560066624 52.59905610971252
rclavicle -4.535503319623912e-16 -7.766258647646129e-16
rhumerus -36.06357164839868 -27.058589397767605 -72.7654082406585
rradius 24.461542839242384
rwrist 5.3348721919912
rhand -18.040421428373744 22.88404494032827
rfingers 7.12502
rthumb 7.951976600386142 -7.3820752644453576
60
root 0.14404246498602444 17.74304719308675 23.77887206645436 -1.8711102076157136 0.5219805439099359 0.1024008187293659
lfemur 14.28724882322633 -7.450944474952971 -24.89710473774048
ltibia 28.496393151338765
lfoot -5.322253872790193 -4.679428629160816
ltoes -2.419415062421466
rfemur -24.014823413467013 2.805582782404815 23.320166960447665
rtibia 35.77934680251905
rfoot -5.46260064418711 -5.104607628356488
rtoes 5.155913909220848
lowerback 9.46501149606885 -0.34522734116779447 -0.5735496712243138
upperback 0.40171622744087954 -1.1410631110489784 1.347783353262092
thorax -4.688043240015822 -0.3155282130457715 2.2400451482885146
lowerneck -16.354875495007217 -3.0052098720997957 -2.0432027798952266
upperneck 21.016601915878475 -3.8341280019116986 0.8711374725916525
head 9.317344727992037 -1.7575612599094477 0.28398253204350166
lclavicle -4.536376239809417e-16 -7.766933326935887e-16
lhumerus -22.803699913582143 -0.008009547407512585 79.87377502731506
lradius 26.038644404024392
lwrist 7.664131942495494
lhand -27.615740870368718 22.198718745848495
lfingers 7.12502
lthumb -0.6176967164461915 53.240368391936094
rclavicle -4.535503319620368e-16 -7.76625864764339e-16
rhumerus -37.14159947233133 -29.000483906158813 -71.15351415022772
rradius 23.895619864525088
rwrist 5.419791087505109
rhand -18.02684610466757 22.87894579817491
rfingers 7.12502
rthumb 7.9033662435896 -7.5143231370248
61
root 0.052340536709662766 17.781247806420435 24.338999126114672 -2.3338410555096214 0.20738561108104525 -1.2907408794740016
lfemur 11.598804049098161 -5.97759029044305 -23.108679594683025
ltibia 34.44475635532724
lfoot -4.900062337985694 -5.348869788663687
ltoes -2.8076979442037855
rfemur -21.844616746262204 3.1031911635901026 25.03574564870329
rtibia 36.705044045289945
rfoot -5.317757352814226 -4.5881902076783
rtoes 5.109864092735785
lowerback 9.377617948987218 -0.23358339782824183 0.33523190446759554
upperback 0.37321508791073627 -0.9627309740023318 1.5450374010454164
thorax -4.724930483003578 -0.25092921388491607 2.0515901930750826
lowerneck -16.351846156385925 -2.985311728676397 -2.0109610774386386
upperneck 21.027279222660223 -3.8449553777960133 0.8598703749555658
head 9.285541151481139 -1.7579011881195026 0.2610825646469023
lclavicle -4.536376240340268e-16 -7.766933327346181e-16
lhumerus -24.496002343628877 0.6521234108397946 80.22848280859617
lradius 25.394084000641055
lwrist 7.350076501631469
lhand -27.83860079278107 21.657635302961644
lfingers 7.12502
lthumb -0.7781172819668438 52.81613270898865
rclavicle -4.535503319746376e-16 -7.766258647740781e-16
rhumerus -37.81845097706402 -30.203345724253857 -70.25431492207
rradius 23.539411545768502
rwrist 5.48149445366308
rhand -18.00742724455657 22.87924450393274
rfingers 7.12502
rthumb 7.901934613116669 -7.550576240473373
